<?xml version="1.0" encoding="utf-8"?>
<!-- Generator: Adobe Illustrator 21.0.2, SVG Export Plug-In . SVG Version: 6.00 Build 0)  -->
<svg version="1.1" id="Capa_1" xmlns="http://www.w3.org/2000/svg" xmlns:xlink="http://www.w3.org/1999/xlink" x="0px" y="0px"
	 viewBox="0 0 800 600" style="enable-background:new 0 0 800 600;" xml:space="preserve">
<style type="text/css">
	.st0{fill:#FFFFFF;}
</style>
<g>
	<path class="st0" d="M75.5,323.9c0,6.1,2.6,7.4,12.4,8.2v2.9H57.3v-2.7c7.4-0.9,8.8-1.4,8.8-7.1v-50.5c0-5.7-1.4-6.2-8.8-7.1v-2.7
		h50.2l0.4,17h-2c-3.6-10.8-7.7-13.7-14.5-13.7h-16v30h13.8c4.3,0,5.8-3.4,6.8-9.4h2.7v22.1H96c-1-6-2.5-9.4-6.8-9.4H75.5V323.9z"/>
	<path class="st0" d="M130.3,310.4c0,12.8,6.3,20.5,17.3,20.5c13.1,0,21-6.5,21-21.3v-34.8c0-5.7-1.5-6.5-9.8-7.3v-2.7h22.5v2.7
		c-7.4,0.9-8.8,1.6-8.8,7.3v36.4c0,16.8-11.2,24.7-25.1,24.7c-16.1,0-26.5-7.8-26.5-25v-36.3c0-5.7-1.4-6.2-8.8-7.1v-2.7h27v2.7
		c-7.4,0.9-8.8,1.4-8.8,7.1V310.4z"/>
	<path class="st0" d="M241.6,274.9c0-5.7-1.5-6.5-9.8-7.3v-2.7h22.5v2.7c-7.4,0.9-8.8,1.6-8.8,7.3v60.5H243l-45-58V325
		c0,5.7,1.5,6.5,9.8,7.3v2.7h-22.5v-2.7c7.4-0.9,8.8-1.6,8.8-7.3v-51.3c-3.5-4.5-4.9-5.9-9-6.1v-2.7h15.5l41,53.4V274.9z"/>
	<path class="st0" d="M258.8,335v-2.7c7.4-0.9,8.8-1.4,8.8-7.1v-50.5c0-5.7-1.4-6.2-8.8-7.1v-2.7h28.4c25.2,0,36.1,15.7,36.1,33.1
		c0,23.7-15.8,37-34.8,37H258.8z M277,268.2v56.4c0,5.9,2.7,7.1,8.9,7.1h2.7c14,0,24.4-10.6,24.4-31.5c0-16.5-7.2-32.1-27.6-32.1
		H277z"/>
	<path class="st0" d="M369,310.4h-28.5l-5.3,13.5c-0.6,1.5-1,2.9-1,4c0,3.1,2.3,4.2,9.1,4.4v2.7h-19.7v-2.7c2.8-0.4,4.9-1,5.9-3.7
		l23-58l-2.8-6.6h10l26.6,64.6c1.1,2.7,3.2,3.3,5.9,3.7v2.7h-25.6v-2.7c6.7-0.2,9-1.2,9-4.3c0-1.2-0.4-2.5-1-4L369,310.4z
		 M341.7,307.2h26l-13.2-32.5L341.7,307.2z"/>
	<path class="st0" d="M456.6,278.5L436.1,335h-2.3l-22.1-56.5l-5.1,45c-0.1,0.7-0.2,2.1-0.2,2.4c0,4.9,2.4,5.8,9.2,6.4v2.7h-21.2
		v-2.7c5.5-0.4,7.6-1.3,8.1-6l6.1-51.4c0-5.3-2.1-6.9-8.5-7.3v-2.7h17.1c0.2,2.3,0.7,3.6,1.5,5.7l19.3,49.2l17.6-49.2
		c0.8-2.1,1.3-3.4,1.5-5.7h17v2.7c-6.3,0.4-8.4,2-8.4,7.3l6,51.4c0.6,4.7,2.7,5.6,8.1,6v2.7h-27v-2.7c6.9-0.6,9.2-1.5,9.2-6.4
		c0-0.3-0.1-1.7-0.1-2.4L456.6,278.5z"/>
	<path class="st0" d="M484.3,332.3c7.4-0.9,8.8-1.4,8.8-7.1v-50.5c0-5.7-1.4-6.2-8.8-7.1v-2.7h52.1l0.5,16.7h-2
		c-4.5-10.7-7.7-13.4-14.6-13.4h-17.9v29h15.9c4.3,0,6-3,7.1-9h2.7v21.3h-2.7c-1.1-6-2.8-9-7.1-9h-15.9v24.5c0,5.4,2.9,6.8,9.8,6.8
		h9.2c7.1,0,10.6-4.2,16.8-14.7h2.4l-3,18h-53.3V332.3z"/>
	<path class="st0" d="M602.2,274.9c0-5.7-1.5-6.5-9.8-7.3v-2.7h22.5v2.7c-7.4,0.9-8.8,1.6-8.8,7.3v60.5h-2.5l-45-58V325
		c0,5.7,1.5,6.5,9.8,7.3v2.7h-22.5v-2.7c7.4-0.9,8.8-1.6,8.8-7.3v-51.3c-3.5-4.5-4.9-5.9-9-6.1v-2.7h15.5l41,53.4V274.9z"/>
	<path class="st0" d="M677.8,264.9l1.5,20.9h-2.2c-5.6-13.9-7.6-17.8-16.4-17.8h-7.3v57.4c0,5.7,2.8,6,9.7,6.9v2.7h-28.9v-2.7
		c6.9-0.9,9.8-1.2,9.8-6.9V268h-7.4c-8.8,0-10.8,3.9-16.4,17.8h-2.2l1.5-20.9H677.8z"/>
	<path class="st0" d="M719.5,310.4h-28.5l-5.3,13.5c-0.6,1.5-1,2.9-1,4c0,3.1,2.3,4.2,9.1,4.4v2.7h-19.7v-2.7c2.8-0.4,4.9-1,5.9-3.7
		l23-58l-2.8-6.6h10l26.6,64.6c1.1,2.7,3.2,3.3,5.9,3.7v2.7h-25.6v-2.7c6.7-0.2,9-1.2,9-4.3c0-1.2-0.4-2.5-1-4L719.5,310.4z
		 M692.3,307.2h26l-13.2-32.5L692.3,307.2z"/>
</g>
</svg>
