<?xml version="1.0" encoding="utf-8"?>
<!-- Generator: Adobe Illustrator 21.0.2, SVG Export Plug-In . SVG Version: 6.00 Build 0)  -->
<svg version="1.1" id="Capa_1" xmlns="http://www.w3.org/2000/svg" xmlns:xlink="http://www.w3.org/1999/xlink" x="0px" y="0px"
	 viewBox="0 0 800 600" style="enable-background:new 0 0 800 600;" xml:space="preserve">
<style type="text/css">
	.st0{fill:#FFFFFF;}
</style>
<g>
	<g>
		<path class="st0" d="M331.1,193.1h43.8v9.2h-34.2v21.4h32.1v9.2h-32.1v23.6h34.2v9.2h-43.8V193.1z"/>
		<path class="st0" d="M427.3,265.6l-23.6-61.6v61.6h-9.6v-72.5h14.4l23.6,61.5v-61.5h9.6v72.5H427.3z"/>
		<path class="st0" d="M480.6,202.5h-22.1v-9.2h53.9v9.2h-22.2v63.3h-9.6V202.5z"/>
		<path class="st0" d="M538.8,265.8h-9.7v-72.4h18c16,0,28.5,3.2,28.5,20.7c0,11.3-5.1,16.9-13.2,19.5l15.5,32.2h-10.9l-14.4-30.5
			c-1.7,0.2-3.6,0.2-5.5,0.2h-8.3V265.8z M538.8,202.5v23.8h9.5c9.7,0,17.4-0.7,17.4-12c0-11.3-7.6-11.8-17.4-11.8H538.8z"/>
		<path class="st0" d="M595.1,193.3h43.8v9.2h-34.2v21.4h34.7v9.2h-34.7v23.6h34.2v9.2h-43.8V193.3z"/>
	</g>
	<g>
		<path class="st0" d="M321.4,326.9c0,22.1-9.2,37.5-27.5,37.5c-18.3,0-27.5-15.4-27.5-37.5c0-22.1,9.2-37.5,27.5-37.5
			C312.2,289.4,321.4,304.8,321.4,326.9z M311.5,326.9c0-18.5-5.5-28.6-17.6-28.6c-12.1,0-17.6,10-17.6,28.6
			c0,18.6,5.5,28.6,17.6,28.6C306,355.5,311.5,345.5,311.5,326.9z"/>
		<path class="st0" d="M354.5,337.8l-10.7-37.6v63h-9.6v-72.4h15.1l10.1,36.5l10.2-36.5h15v72.4H375v-63l-10.7,37.6H354.5z"/>
		<path class="st0" d="M399.3,291.5h21.6c12.3,0,24.2,3.4,24.2,18c0,7-2.7,13-7.3,15.9c6.2,2.9,10,8.1,10,17.1
			c0,15.6-11.5,21.4-24.7,21.4h-23.9V291.5z M423,322.3c7.6,0,12.4-2.8,12.4-11.5c0-7.5-5-10.3-12.4-10.3h-14.1v21.7H423z
			 M424,354.7c9.3,0,14-3.8,14-12.1c0-8.6-4.7-11.7-14.6-11.7h-14.4v23.8H424z"/>
		<path class="st0" d="M475.3,363.9h-9.7v-72.4h18c16,0,28.5,3.2,28.5,20.7c0,11.3-5.1,16.9-13.2,19.5l15.5,32.2h-10.9l-14.4-30.5
			c-1.7,0.2-3.6,0.2-5.5,0.2h-8.3V363.9z M475.3,300.6v23.8h9.5c9.7,0,17.3-0.7,17.3-12c0-11.3-7.6-11.8-17.3-11.8H475.3z"/>
		<path class="st0" d="M531.7,291.5h43.7v9.2h-34.2V322h32.1v9.2h-32.1v23.6h34.2v9.2h-43.7V291.5z"/>
		<path class="st0" d="M594.2,310.1c0-12.7,10.9-20,24.1-20c11.3,0,22.8,5.9,24.4,20.5h-9.6c-1.1-8.8-8.7-11.6-15.4-11.6
			c-6.6,0-13.6,3.2-13.6,10.8c0,6.4,4.7,9.4,10.6,10.7l7.3,1.6c11.9,2.6,22.2,7.4,22.2,21.4c0,13.7-10.7,21.6-24.9,21.6
			c-14.9,0-25.7-9.3-26.6-23.9h9.6c1,9.8,7.9,14.9,17.4,14.9c7.3,0,14.7-3.5,14.7-11.9c0-7.6-5.8-10.7-13.8-12.5l-8-1.9
			C603,327.8,594.2,321.8,594.2,310.1z"/>
		<rect x="242.6" y="290.7" class="st0" width="9.6" height="72.4"/>
		<rect x="203.8" y="290.7" class="st0" width="9.6" height="72.4"/>
		<polygon class="st0" points="233,321.3 172.2,321 172.2,311.8 155.7,325.9 172.3,339.7 172.2,330.4 233,330.4 		"/>
	</g>
	<g>
		<path class="st0" d="M173.8,387.9h14.3v2.6h-11.3v6.1h10.7v2.6h-10.7v6.8h11.3v2.6h-14.3V387.9z"/>
		<path class="st0" d="M195.1,395.5c0.9-1.3,2.4-2.4,5-2.4c2.1,0,3.5,0.8,4.3,2.1c0.6,1,0.8,2.3,0.8,4.1v9.4h-2.7V400
			c0-1.6-0.2-2.6-0.6-3.3c-0.6-0.9-1.5-1.3-2.9-1.3c-2.6,0-4.1,1.8-4.1,5.1v8.2h-2.7v-15.3h2.7V395.5z"/>
		<path class="st0" d="M223.4,398.2l-2.7,0.4c-0.4-1.9-1.9-3.1-3.9-3.1c-2.4,0-4.4,1.8-4.4,5.6c0,3.8,2,5.7,4.4,5.7
			c2.3,0,3.7-1.4,4.1-3.1l2.7,0.3c-0.5,2.7-3.2,5.1-6.9,5.1c-4.6,0-7.2-3.4-7.2-8c0-4.5,2.7-8,7.5-8
			C220.8,393.1,223.1,395.8,223.4,398.2z"/>
		<path class="st0" d="M237.4,406.5c-0.8,1.4-2.2,2.5-4.8,2.5c-1.9,0-3.2-0.7-4-1.8c-0.8-1-1.1-2.5-1.1-4.4v-9.5h2.7v8.7
			c0,1.6,0.2,2.6,0.5,3.3c0.5,1,1.5,1.4,2.9,1.4c2.4,0,3.9-1.8,3.9-5v-8.4h2.7v15.3h-2.7V406.5z"/>
		<path class="st0" d="M244.5,401.1c0-4.8,3.1-8,7.5-8c4.8,0,7.6,3.8,7.2,8.8h-11.8c0,3,1.9,4.9,4.5,4.9c2.4,0,3.7-1,4.3-2.7
			l2.7,0.3c-0.7,2.5-3.1,4.7-7,4.7C246.9,409.1,244.5,405.5,244.5,401.1z M247.4,399.6h9c-0.1-2.1-1.5-4.3-4.4-4.3
			C249.3,395.3,247.5,396.9,247.4,399.6z"/>
		<path class="st0" d="M272.5,397.8c-0.4-1.8-1.9-2.4-3.8-2.4c-1.7,0-3.3,0.6-3.3,1.9c0,1.2,0.9,1.7,2.5,2l1.8,0.4
			c2.9,0.6,5.6,1.6,5.6,4.7c0,3.1-2.8,4.8-6.4,4.8c-4.1,0-6.4-2.6-6.6-5l2.8-0.2c0.4,1.8,1.6,3,3.9,3c2.1,0,3.6-0.9,3.6-2.3
			c0-1.4-1.6-2.1-3.4-2.5l-2-0.4c-2.2-0.4-4.6-1.4-4.6-4.3c0-2.7,2.9-4.3,6.2-4.3c3.4,0,5.7,1.8,6.3,4.4L272.5,397.8z M279.4,389.1
			h2.7v4.2h2.9v2.2h-2.9v8.9c0,1.6,0.1,2,1.6,2h1.3v2.3h-1.9c-3,0-3.7-0.7-3.7-3.9v-9.2H277v-2.2h2.5V389.1z"/>
		<path class="st0" d="M288.5,398c0.2-3.2,3-4.9,6.4-4.9c4.4,0,6.1,1.7,6.1,5.8l-0.1,3.9c0,2.4,0.1,3.9,0.3,5.9h-2.6l-0.1-2.2
			c-0.9,1.5-2.4,2.5-5.2,2.5c-3.6,0-5.4-2.3-5.4-5c0-1.7,0.8-2.8,2.1-3.5c1.5-0.8,3.3-1.1,5.3-1.3l3-0.3v-0.6c0-2.5-1.5-3.2-3.5-3.2
			c-2.4,0-3.5,1.2-3.7,2.8L288.5,398z M298.5,401.1l-3.2,0.3c-3,0.3-4.5,1-4.5,2.7c0,1.6,1.3,2.6,3.1,2.6c2.2,0,4.6-1.2,4.6-4.7
			V401.1z"/>
		<path class="st0" d="M327.3,408.7h-2.6l-0.1-2.1c-1,1.5-2.4,2.5-5,2.5c-3.7,0-6.4-3-6.4-8c0-4.9,2.8-8,6.7-8
			c2.2,0,3.8,0.9,4.7,2.3v-7.5h2.7V408.7z M324.8,401c0-4-2-5.6-4.4-5.6c-2.8,0-4.3,2.1-4.3,5.6c0,3.6,1.4,5.7,4.3,5.7
			C322.7,406.7,324.8,405,324.8,401z"/>
		<path class="st0" d="M331.7,401.1c0-4.8,3.1-8,7.5-8c4.8,0,7.6,3.8,7.2,8.8h-11.8c0,3,1.9,4.9,4.5,4.9c2.4,0,3.7-1,4.3-2.7
			l2.7,0.3c-0.7,2.5-3.1,4.7-7,4.7C334.1,409.1,331.7,405.5,331.7,401.1z M334.6,399.6h9c-0.1-2.1-1.5-4.3-4.4-4.3
			C336.5,395.3,334.7,396.9,334.6,399.6z"/>
		<path class="st0" d="M367.7,397.8c-0.4-1.8-1.9-2.4-3.8-2.4c-1.7,0-3.3,0.6-3.3,1.9c0,1.2,0.9,1.7,2.5,2l1.8,0.4
			c2.9,0.6,5.6,1.6,5.6,4.7c0,3.1-2.8,4.8-6.4,4.8c-4.1,0-6.4-2.6-6.6-5l2.8-0.2c0.4,1.8,1.6,3,3.9,3c2.1,0,3.6-0.9,3.6-2.3
			c0-1.4-1.6-2.1-3.4-2.5l-2-0.4c-2.2-0.4-4.6-1.4-4.6-4.3c0-2.7,2.9-4.3,6.2-4.3c3.4,0,5.7,1.8,6.3,4.4L367.7,397.8z"/>
		<path class="st0" d="M374,401.1c0-4.8,3.1-8,7.5-8c4.8,0,7.6,3.8,7.2,8.8h-11.8c0,3,1.9,4.9,4.5,4.9c2.4,0,3.7-1,4.3-2.7l2.7,0.3
			c-0.7,2.5-3.1,4.7-7,4.7C376.4,409.1,374,405.5,374,401.1z M376.9,399.6h9c-0.1-2.1-1.5-4.3-4.4-4.3
			C378.8,395.3,377,396.9,376.9,399.6z"/>
		<path class="st0" d="M399.6,400.7l5.8,8h-3.2l-4.2-5.8l-4.2,5.8h-3l5.8-7.9l-5.4-7.5h3.2l3.8,5.3l3.9-5.3h3L399.6,400.7z"/>
		<path class="st0" d="M414.9,393.1c3.8,0,7.2,2.5,7.2,8c0,5.5-3.5,8-7.2,8c-3.8,0-7.2-2.5-7.2-8
			C407.6,395.6,411.1,393.1,414.9,393.1z M414.9,406.7c2.5,0,4.4-1.7,4.4-5.7s-1.9-5.7-4.4-5.7c-2.5,0-4.4,1.7-4.4,5.7
			S412.4,406.7,414.9,406.7z"/>
		<path class="st0" d="M433.6,401.1c0-4.8,3.1-8,7.4-8c4.8,0,7.6,3.8,7.2,8.8h-11.8c0,3,1.9,4.9,4.5,4.9c2.4,0,3.7-1,4.3-2.7
			l2.7,0.3c-0.7,2.5-3.1,4.7-7,4.7C436,409.1,433.6,405.5,433.6,401.1z M436.5,399.6h9c-0.1-2.1-1.5-4.3-4.4-4.3
			C438.4,395.3,436.6,396.9,436.5,399.6z"/>
		<path class="st0" d="M455.2,395.5c0.9-1.3,2.4-2.4,5-2.4c2.1,0,3.5,0.8,4.3,2.1c0.6,1,0.8,2.3,0.8,4.1v9.4h-2.7V400
			c0-1.6-0.2-2.6-0.6-3.3c-0.6-0.9-1.5-1.3-2.9-1.3c-2.6,0-4.1,1.8-4.1,5.1v8.2h-2.7v-15.3h2.7V395.5z"/>
		<path class="st0" d="M471.4,389.1h2.7v4.2h2.9v2.2H474v8.9c0,1.6,0.1,2,1.6,2h1.3v2.3h-1.9c-3,0-3.7-0.7-3.7-3.9v-9.2h-2.5v-2.2
			h2.5V389.1z"/>
		<path class="st0" d="M489.1,396.1c-0.6-0.1-1-0.1-1.5-0.1c-2.4,0-3.7,1.3-3.7,4.8v7.9h-2.7v-15.3h2.6v2.7c0.8-1.8,2.4-2.8,4.4-2.8
			c0.3,0,0.5,0,0.8,0V396.1z"/>
		<path class="st0" d="M491.6,401.1c0-4.8,3.1-8,7.4-8c4.8,0,7.6,3.8,7.2,8.8h-11.8c0,3,1.9,4.9,4.5,4.9c2.4,0,3.7-1,4.3-2.7
			l2.7,0.3c-0.7,2.5-3.1,4.7-7,4.7C494,409.1,491.6,405.5,491.6,401.1z M494.4,399.6h9c-0.1-2.1-1.5-4.3-4.4-4.3
			C496.4,395.3,494.5,396.9,494.4,399.6z"/>
		<path class="st0" d="M521.3,395.5c0.9-1.3,2.4-2.4,5-2.4c2.1,0,3.5,0.8,4.3,2.1c0.6,1,0.8,2.3,0.8,4.1v9.4h-2.7V400
			c0-1.6-0.2-2.6-0.6-3.3c-0.6-0.9-1.5-1.3-2.9-1.3c-2.6,0-4.1,1.8-4.1,5.1v8.2h-2.7v-20.8h2.7V395.5z"/>
		<path class="st0" d="M542.9,393.1c3.8,0,7.2,2.5,7.2,8c0,5.5-3.5,8-7.2,8c-3.8,0-7.2-2.5-7.2-8
			C535.7,395.6,539.1,393.1,542.9,393.1z M542.9,406.7c2.5,0,4.4-1.7,4.4-5.7s-1.9-5.7-4.4-5.7c-2.5,0-4.4,1.7-4.4,5.7
			S540.4,406.7,542.9,406.7z"/>
		<path class="st0" d="M554.5,393.3h2.7v2.1c0.8-1.4,2.2-2.4,4.8-2.4c2.4,0,3.7,1.1,4.4,2.7c1.2-1.8,2.9-2.7,5.4-2.7
			c1.6,0,2.9,0.6,3.7,1.4c0.9,1,1.3,2.6,1.3,4.7v9.4h-2.7V400c0-1.9-0.3-3.1-0.9-3.7c-0.6-0.6-1.4-0.9-2.4-0.9c-2.3,0-3.8,1.8-3.8,5
			v8.3h-2.7V400c0-1.9-0.3-3.1-0.9-3.7c-0.6-0.6-1.4-0.9-2.4-0.9c-2.3,0-3.8,1.8-3.8,5v8.3h-2.7V393.3z"/>
		<path class="st0" d="M581.9,387.9h2.7v7.7c1-1.5,2.4-2.5,5-2.5c3.7,0,6.4,3,6.4,8c0,4.9-2.8,8-6.7,8c-2.2,0-3.8-0.9-4.7-2.3
			l-0.1,1.9h-2.5V387.9z M584.5,401.1c0,4,2,5.6,4.4,5.6c2.8,0,4.3-2.1,4.3-5.6c0-3.6-1.4-5.7-4.3-5.7
			C586.6,395.4,584.5,397.1,584.5,401.1z"/>
		<path class="st0" d="M608.2,396.1c-0.6-0.1-1-0.1-1.5-0.1c-2.4,0-3.7,1.3-3.7,4.8v7.9h-2.7v-15.3h2.6v2.7c0.8-1.8,2.4-2.8,4.4-2.8
			c0.3,0,0.5,0,0.8,0V396.1z"/>
		<path class="st0" d="M610.6,401.1c0-4.8,3.1-8,7.5-8c4.8,0,7.6,3.8,7.2,8.8h-11.8c0,3,1.9,4.9,4.5,4.9c2.4,0,3.7-1,4.3-2.7
			l2.7,0.3c-0.7,2.5-3.1,4.7-7,4.7C613,409.1,610.6,405.5,610.6,401.1z M613.5,399.6h9c-0.1-2.1-1.5-4.3-4.4-4.3
			C615.4,395.3,613.6,396.9,613.5,399.6z"/>
		<path class="st0" d="M638.6,397.8c-0.4-1.8-1.9-2.4-3.8-2.4c-1.7,0-3.3,0.6-3.3,1.9c0,1.2,0.9,1.7,2.5,2l1.9,0.4
			c2.9,0.6,5.6,1.6,5.6,4.7c0,3.1-2.8,4.8-6.4,4.8c-4.1,0-6.4-2.6-6.6-5l2.8-0.2c0.4,1.8,1.6,3,3.9,3c2.1,0,3.6-0.9,3.6-2.3
			c0-1.4-1.6-2.1-3.4-2.5l-2-0.4c-2.2-0.4-4.6-1.4-4.6-4.3c0-2.7,2.9-4.3,6.2-4.3c3.4,0,5.7,1.8,6.3,4.4L638.6,397.8z"/>
	</g>
	<g>
		<path class="st0" d="M162.4,192.3h43.8v9.2H172v21.4H204v9.2H172v23.6h34.2v9.2h-43.8V192.3z"/>
		<path class="st0" d="M224.9,210.9c0-12.7,10.9-20,24.1-20c11.3,0,22.8,5.9,24.4,20.5h-9.6c-1.1-8.8-8.7-11.6-15.4-11.6
			c-6.7,0-13.6,3.2-13.6,10.8c0,6.4,4.7,9.4,10.6,10.7l7.3,1.6c11.9,2.6,22.3,7.4,22.3,21.4c0,13.7-10.7,21.6-24.9,21.6
			c-14.9,0-25.8-9.3-26.6-23.9h9.6c1,9.8,7.9,14.9,17.4,14.9c7.3,0,14.7-3.5,14.7-11.9c0-7.6-5.8-10.7-13.7-12.5l-8-1.9
			C233.8,228.6,224.9,222.6,224.9,210.9z"/>
		<path class="st0" d="M293.6,200.3h11.7v11.7h-11.7V200.3z M293.6,243.1h11.7v11.7h-11.7V243.1z"/>
	</g>
</g>
</svg>
