<?xml version="1.0" encoding="utf-8"?>
<!-- Generator: Adobe Illustrator 18.0.0, SVG Export Plug-In . SVG Version: 6.00 Build 0)  -->
<!DOCTYPE svg PUBLIC "-//W3C//DTD SVG 1.1//EN" "http://www.w3.org/Graphics/SVG/1.1/DTD/svg11.dtd">
<svg version="1.1" id="Layer_1" xmlns="http://www.w3.org/2000/svg" xmlns:xlink="http://www.w3.org/1999/xlink" x="0px" y="0px"
	 viewBox="0 0 540 294" enable-background="new 0 0 540 294" xml:space="preserve">
<g>
	<path d="M12.6,14.4h33.8v7.1H20V38h24.8v7.1H20v18.2h26.4v7.1H12.6V14.4z"/>
	<path d="M60.9,28.8c0-9.8,8.4-15.4,18.6-15.4c8.8,0,17.6,4.5,18.9,15.8H91c-0.8-6.8-6.7-8.9-11.9-8.9c-5.1,0-10.5,2.4-10.5,8.3
		c0,5,3.6,7.2,8.2,8.3l5.6,1.3c9.2,2,17.2,5.7,17.2,16.5c0,10.6-8.3,16.7-19.2,16.7c-11.5,0-19.9-7.2-20.6-18.5h7.4
		c0.8,7.6,6.1,11.5,13.4,11.5c5.6,0,11.4-2.7,11.4-9.2c0-5.9-4.5-8.3-10.6-9.7l-6.2-1.4C67.7,42.5,60.9,37.9,60.9,28.8z"/>
	<path d="M48.5,85.6h33.8v7.1H55.9v16.5h24.8v7.1H55.9v18.2h26.4v7.1H48.5V85.6z"/>
	<path d="M122.7,141.6L104.5,94v47.6h-7.4v-56h11.1l18.2,47.5V85.6h7.4v56H122.7z"/>
	<path d="M163.9,92.8h-17.1v-7.1h41.6v7.1h-17.1v48.9h-7.4V92.8z"/>
	<path d="M208.8,141.7h-7.5v-56h13.9c12.4,0,22,2.4,22,16c0,8.8-4,13.1-10.2,15.1l12,24.9h-8.4l-11.1-23.6c-1.3,0.2-2.8,0.2-4.2,0.2
		h-6.4V141.7z M208.8,92.8v18.4h7.3c7.5,0,13.4-0.5,13.4-9.3c0-8.8-5.9-9.1-13.4-9.1H208.8z"/>
	<path d="M252.3,85.8h33.8v7.1h-26.4v16.5h26.8v7.1h-26.8v18.2h26.4v7.1h-33.8V85.8z"/>
	<path d="M430.8,113.7c0,17.1-7.1,29-21.2,29c-14.2,0-21.2-11.9-21.2-29c0-17.1,7.1-29,21.2-29C423.7,84.8,430.8,96.6,430.8,113.7z
		 M423.1,113.7c0-14.3-4.2-22.1-13.6-22.1c-9.4,0-13.6,7.8-13.6,22.1c0,14.3,4.2,22.1,13.6,22.1
		C418.9,135.8,423.1,128.1,423.1,113.7z"/>
	<path d="M456.4,122.2l-8.3-29.1v48.6h-7.4v-56h11.6l7.8,28.2l7.8-28.2h11.6v56h-7.4V93.1l-8.3,29.1H456.4z"/>
	<path d="M340,158.8h16.7c9.5,0,18.7,2.6,18.7,13.9c0,5.4-2.1,10-5.6,12.3c4.8,2.3,7.8,6.2,7.8,13.2c0,12-8.8,16.5-19,16.5H340
		V158.8z M358.3,182.7c5.9,0,9.6-2.2,9.6-8.8c0-5.8-3.9-7.9-9.6-7.9h-10.9v16.8H358.3z M359,207.7c7.2,0,10.8-3,10.8-9.4
		c0-6.7-3.6-9-11.3-9h-11.1v18.4H359z"/>
	<path d="M398.7,214.8h-7.5v-56h13.9c12.4,0,22,2.4,22,16c0,8.8-4,13.1-10.2,15.1l12,24.9h-8.4l-11.1-23.6c-1.4,0.2-2.8,0.2-4.2,0.2
		h-6.4V214.8z M398.7,165.9v18.4h7.3c7.5,0,13.4-0.5,13.4-9.3c0-8.8-5.9-9.1-13.4-9.1H398.7z"/>
	<path d="M442.2,158.8H476v7.1h-26.4v16.5h24.8v7.1h-24.8v18.2H476v7.1h-33.8V158.8z"/>
	<path d="M490.5,173.2c0-9.8,8.4-15.4,18.6-15.4c8.8,0,17.6,4.5,18.9,15.8h-7.4c-0.8-6.8-6.7-8.9-11.9-8.9c-5.1,0-10.5,2.4-10.5,8.3
		c0,5,3.6,7.2,8.2,8.3l5.7,1.3c9.2,2,17.2,5.7,17.2,16.5c0,10.6-8.3,16.7-19.2,16.7c-11.5,0-19.9-7.2-20.6-18.5h7.4
		c0.8,7.6,6.1,11.5,13.4,11.5c5.6,0,11.4-2.7,11.4-9.2c0-5.9-4.5-8.3-10.6-9.7l-6.1-1.4C497.3,186.9,490.5,182.3,490.5,173.2z"/>
	<rect x="369.9" y="85.8" width="7.4" height="56"/>
	<rect x="340" y="85.8" width="7.4" height="56"/>
	<polygon points="362.5,109.4 315.6,109.1 315.6,102 302.8,112.9 315.7,123.6 315.6,116.4 362.5,116.4 	"/>
	<g>
		<path d="M19.6,244.7h15.6v2.9H22.8v6.7h11.6v2.9H22.8v7.4h12.3v2.9H19.6V244.7z"/>
		<path d="M42.8,253c1-1.5,2.6-2.6,5.5-2.6c2.3,0,3.8,0.9,4.7,2.3c0.6,1.1,0.9,2.5,0.9,4.4v10.3H51v-9.5c0-1.8-0.2-2.8-0.6-3.5
			c-0.6-1-1.6-1.4-3.1-1.4c-2.8,0-4.5,1.9-4.5,5.6v8.9h-2.9v-16.7h2.9V253z"/>
		<path d="M73.6,255.9l-2.9,0.4c-0.4-2.1-2-3.4-4.3-3.4c-2.7,0-4.8,2-4.8,6.1c0,4.2,2.2,6.2,4.8,6.2c2.5,0,4-1.5,4.4-3.3l3,0.4
			c-0.5,2.9-3.5,5.5-7.5,5.5c-5,0-7.8-3.7-7.8-8.7c0-4.9,3-8.7,8.1-8.7C70.7,250.4,73.2,253.3,73.6,255.9z"/>
		<path d="M88.9,265c-0.9,1.6-2.4,2.8-5.2,2.8c-2,0-3.5-0.7-4.4-1.9c-0.8-1.1-1.2-2.7-1.2-4.8v-10.4H81v9.4c0,1.7,0.2,2.8,0.5,3.5
			c0.5,1.1,1.6,1.6,3.1,1.6c2.6,0,4.2-1.9,4.2-5.5v-9.1h2.9v16.7h-2.9V265z"/>
		<path d="M96.6,259.1c0-5.2,3.4-8.7,8.1-8.7c5.2,0,8.3,4.2,7.8,9.5H99.6c0,3.3,2.1,5.3,4.9,5.3c2.7,0,4-1.1,4.7-2.9l3,0.4
			c-0.8,2.8-3.4,5.1-7.6,5.1C99.2,267.8,96.6,264,96.6,259.1z M99.7,257.5h9.8c-0.1-2.3-1.7-4.7-4.8-4.7
			C101.8,252.9,99.8,254.6,99.7,257.5z"/>
		<path d="M127,255.5c-0.4-1.9-2-2.7-4.2-2.7c-1.8,0-3.6,0.6-3.6,2c0,1.3,1,1.8,2.8,2.2l2,0.4c3.1,0.6,6.1,1.8,6.1,5.1
			c0,3.3-3,5.2-7,5.2c-4.5,0-6.9-2.8-7.2-5.4l3-0.3c0.4,2,1.7,3.3,4.3,3.3c2.3,0,4-1,4-2.5c0-1.5-1.7-2.3-3.6-2.7l-2.2-0.4
			c-2.4-0.5-5-1.5-5-4.7c0-2.9,3.2-4.6,6.8-4.6c3.7,0,6.2,1.9,6.9,4.8L127,255.5z M134.6,246.1h2.9v4.6h3.2v2.4h-3.2v9.7
			c0,1.8,0.1,2.2,1.8,2.2h1.4v2.5h-2.1c-3.3,0-4-0.7-4-4.3v-10.1h-2.7v-2.4h2.7V246.1z"/>
		<path d="M143.4,255.7c0.2-3.4,3.2-5.4,7-5.4c4.7,0,6.7,1.8,6.6,6.3l-0.1,4.2c0,2.6,0.1,4.2,0.3,6.4h-2.8l-0.1-2.4
			c-1,1.7-2.7,2.8-5.6,2.8c-3.9,0-5.9-2.6-5.9-5.4c0-1.8,0.9-3,2.3-3.8c1.6-0.9,3.6-1.2,5.8-1.5l3.2-0.3v-0.6c0-2.7-1.6-3.4-3.9-3.4
			c-2.6,0-3.9,1.3-4,3.1L143.4,255.7z M154.3,259.2l-3.5,0.3c-3.3,0.3-4.9,1.1-4.9,3c0,1.8,1.4,2.8,3.4,2.8c2.3,0,5-1.3,5-5.1V259.2
			z"/>
		<path d="M185.7,267.4h-2.8l-0.1-2.3c-1.1,1.6-2.6,2.7-5.4,2.7c-4,0-7-3.3-7-8.7c0-5.4,3-8.7,7.3-8.7c2.4,0,4.2,1,5.1,2.5v-8.1h2.9
			V267.4z M182.9,259.1c0-4.3-2.1-6.1-4.8-6.1c-3,0-4.6,2.3-4.6,6.1c0,3.9,1.6,6.2,4.6,6.2C180.7,265.3,182.9,263.4,182.9,259.1z"/>
		<path d="M190.5,259.1c0-5.2,3.4-8.7,8.1-8.7c5.2,0,8.3,4.2,7.8,9.5h-12.9c0,3.3,2.1,5.3,4.9,5.3c2.7,0,4-1.1,4.7-2.9l3,0.4
			c-0.8,2.8-3.4,5.1-7.6,5.1C193.1,267.8,190.5,264,190.5,259.1z M193.6,257.5h9.8c-0.1-2.3-1.7-4.7-4.8-4.7
			C195.7,252.9,193.8,254.6,193.6,257.5z"/>
		<path d="M229.7,255.5c-0.4-1.9-2-2.7-4.2-2.7c-1.8,0-3.6,0.6-3.6,2c0,1.3,1,1.8,2.8,2.2l2,0.4c3.1,0.6,6.1,1.8,6.1,5.1
			c0,3.3-3,5.2-7,5.2c-4.5,0-6.9-2.8-7.2-5.4l3-0.3c0.4,2,1.7,3.3,4.3,3.3c2.3,0,4-1,4-2.5c0-1.5-1.7-2.3-3.7-2.7l-2.2-0.4
			c-2.4-0.5-5-1.5-5-4.7c0-2.9,3.2-4.6,6.8-4.6c3.8,0,6.2,1.9,6.9,4.8L229.7,255.5z"/>
		<path d="M236.6,259.1c0-5.2,3.4-8.7,8.1-8.7c5.2,0,8.3,4.2,7.8,9.5h-12.9c0,3.3,2.1,5.3,4.9,5.3c2.7,0,4-1.1,4.7-2.9l3,0.4
			c-0.8,2.8-3.4,5.1-7.6,5.1C239.2,267.8,236.6,264,236.6,259.1z M239.7,257.5h9.8c-0.1-2.3-1.7-4.7-4.8-4.7
			C241.8,252.9,239.8,254.6,239.7,257.5z"/>
		<path d="M264.4,258.7l6.3,8.7h-3.4l-4.6-6.3l-4.6,6.3h-3.3l6.3-8.6l-5.9-8.1h3.4l4.2,5.8l4.2-5.8h3.2L264.4,258.7z"/>
		<path d="M281,250.4c4.1,0,7.9,2.7,7.9,8.7c0,6-3.8,8.7-7.9,8.7c-4.1,0-7.9-2.7-7.9-8.7C273.2,253.1,276.9,250.4,281,250.4z
			 M281,265.3c2.7,0,4.8-1.8,4.8-6.2c0-4.4-2.1-6.2-4.8-6.2c-2.7,0-4.8,1.8-4.8,6.2C276.2,263.5,278.3,265.3,281,265.3z"/>
		<path d="M301.4,259.1c0-5.2,3.4-8.7,8.1-8.7c5.3,0,8.3,4.2,7.8,9.5h-12.9c0,3.3,2.1,5.3,4.9,5.3c2.7,0,4-1.1,4.7-2.9l3,0.4
			c-0.8,2.8-3.4,5.1-7.6,5.1C304.1,267.8,301.4,264,301.4,259.1z M304.5,257.5h9.8c-0.1-2.3-1.7-4.7-4.8-4.7
			C306.7,252.9,304.7,254.6,304.5,257.5z"/>
		<path d="M324.9,253c1-1.5,2.6-2.6,5.5-2.6c2.3,0,3.8,0.9,4.7,2.3c0.7,1.1,0.9,2.5,0.9,4.4v10.3h-2.9v-9.5c0-1.8-0.2-2.8-0.6-3.5
			c-0.6-1-1.6-1.4-3.1-1.4c-2.8,0-4.5,1.9-4.5,5.6v8.9H322v-16.7h2.9V253z"/>
		<path d="M342.5,246.1h2.9v4.6h3.2v2.4h-3.2v9.7c0,1.8,0.1,2.2,1.8,2.2h1.4v2.5h-2.1c-3.3,0-4-0.7-4-4.3v-10.1h-2.7v-2.4h2.7V246.1
			z"/>
		<path d="M361.9,253.7c-0.6-0.1-1.1-0.1-1.6-0.1c-2.7,0-4,1.5-4,5.2v8.6h-2.9v-16.7h2.8v3c0.9-1.9,2.6-3,4.8-3.1c0.3,0,0.5,0,0.9,0
			V253.7z"/>
		<path d="M364.5,259.1c0-5.2,3.4-8.7,8.1-8.7c5.2,0,8.2,4.2,7.8,9.5h-12.9c0,3.3,2.1,5.3,4.9,5.3c2.7,0,4-1.1,4.7-2.9l3,0.4
			c-0.8,2.8-3.4,5.1-7.6,5.1C367.1,267.8,364.5,264,364.5,259.1z M367.6,257.5h9.8c-0.1-2.3-1.7-4.7-4.8-4.7
			C369.7,252.9,367.8,254.6,367.6,257.5z"/>
		<path d="M396.9,253c1-1.5,2.6-2.6,5.5-2.6c2.2,0,3.8,0.9,4.7,2.3c0.7,1.1,0.9,2.5,0.9,4.4v10.3h-2.9v-9.5c0-1.8-0.2-2.8-0.6-3.5
			c-0.6-1-1.6-1.4-3.1-1.4c-2.8,0-4.5,1.9-4.5,5.6v8.9H394v-22.6h2.9V253z"/>
		<path d="M420.4,250.4c4.1,0,7.9,2.7,7.9,8.7c0,6-3.8,8.7-7.9,8.7c-4.1,0-7.9-2.7-7.9-8.7C412.5,253.1,416.3,250.4,420.4,250.4z
			 M420.4,265.3c2.7,0,4.8-1.8,4.8-6.2c0-4.4-2.1-6.2-4.8-6.2c-2.7,0-4.8,1.8-4.8,6.2C415.6,263.5,417.7,265.3,420.4,265.3z"/>
		<path d="M433.1,250.7h2.9v2.3c0.9-1.5,2.4-2.6,5.2-2.6c2.7,0,4,1.2,4.8,2.9c1.3-1.9,3.1-2.9,5.9-2.9c1.8,0,3.1,0.6,4,1.6
			c1,1.1,1.5,2.8,1.5,5.1v10.3h-2.9v-9.4c0-2-0.3-3.3-1-4.1c-0.6-0.6-1.5-1-2.7-1c-2.5,0-4.1,1.9-4.1,5.5v9h-2.9v-9.4
			c0-2-0.3-3.3-1-4.1c-0.6-0.6-1.5-1-2.7-1c-2.5,0-4.1,1.9-4.1,5.5v9h-2.9V250.7z"/>
		<path d="M462.9,244.7h2.9v8.4c1.1-1.6,2.6-2.7,5.4-2.7c4,0,7,3.3,7,8.7c0,5.4-3,8.7-7.3,8.7c-2.4,0-4.2-1-5.1-2.5l-0.1,2h-2.8
			V244.7z M465.7,259.1c0,4.3,2.1,6.1,4.8,6.1c3,0,4.6-2.3,4.6-6.1c0-3.9-1.6-6.2-4.6-6.2C467.9,252.9,465.7,254.8,465.7,259.1z"/>
		<path d="M491.5,253.7c-0.6-0.1-1.1-0.1-1.6-0.1c-2.7,0-4,1.5-4,5.2v8.6H483v-16.7h2.8v3c0.9-1.9,2.6-3,4.8-3.1c0.3,0,0.5,0,0.9,0
			V253.7z"/>
		<path d="M494.1,259.1c0-5.2,3.4-8.7,8.1-8.7c5.3,0,8.3,4.2,7.8,9.5h-12.9c0,3.3,2.1,5.3,4.9,5.3c2.7,0,4-1.1,4.7-2.9l3,0.4
			c-0.8,2.8-3.4,5.1-7.6,5.1C496.7,267.8,494.1,264,494.1,259.1z M497.2,257.5h9.8c-0.1-2.3-1.7-4.7-4.8-4.7
			C499.3,252.9,497.4,254.6,497.2,257.5z"/>
		<path d="M524.5,255.5c-0.4-1.9-2-2.7-4.2-2.7c-1.8,0-3.6,0.6-3.6,2c0,1.3,1,1.8,2.8,2.2l2,0.4c3.1,0.6,6.1,1.8,6.1,5.1
			c0,3.3-3,5.2-7,5.2c-4.5,0-6.9-2.8-7.2-5.4l3-0.3c0.4,2,1.7,3.3,4.3,3.3c2.3,0,4-1,4-2.5c0-1.5-1.7-2.3-3.7-2.7l-2.2-0.4
			c-2.4-0.5-5-1.5-5-4.7c0-2.9,3.2-4.6,6.8-4.6c3.8,0,6.2,1.9,6.9,4.8L524.5,255.5z"/>
	</g>
	<path d="M114,20.6h9v9h-9V20.6z M114,53.7h9v9h-9V53.7z"/>
</g>
</svg>
