<?xml version="1.0" encoding="utf-8"?>
<!-- Generator: Adobe Illustrator 21.0.2, SVG Export Plug-In . SVG Version: 6.00 Build 0)  -->
<svg version="1.1" id="Capa_1" xmlns="http://www.w3.org/2000/svg" xmlns:xlink="http://www.w3.org/1999/xlink" x="0px" y="0px"
	 viewBox="0 0 569 187" style="enable-background:new 0 0 569 187;" xml:space="preserve">
<style type="text/css">
	.st0{fill:#4E4E4E;}
</style>
<g>
	<path class="st0" d="M71.1,102.5c0-3.9-3.5-7.6-7.5-7.6h-1.8c-3.7,0-7,2.4-7,5.7c0,9.5,23.9,5.8,23.9,22.8
		c0,7.5-7.4,13.5-15.5,13.5h-2.1c-9.5,0-15.8-7.2-15.8-14.6v-1.1h7.5v0.8c0,4.4,3.9,8.1,8.6,8.1H63c4.3,0,8-3,8-6.9
		c0-9.9-24.1-6.7-24.1-22c0-7.8,6.7-13,14.9-13h1.8c10.2,0,15.3,8.3,15.3,14.3H71.1z"/>
	<path class="st0" d="M95.6,89.1H119v40.1h14.3v6.7H95.6v-6.7h15.9V95.9H95.6V89.1z M110.6,70.4h8.6v8.3h-8.6V70.4z"/>
	<path class="st0" d="M177.9,135.9V105c0-5.6-4.3-10.1-10.4-10.1c-6.1,0-11.5,5.1-11.5,9.6v31.4h-7.5V89.1h7.3V93
		c2.2-2.2,6.6-4.8,12.1-4.8c10.3,0,17.6,7.6,17.6,17.1v30.6H177.9z"/>
	<path class="st0" d="M290.4,135.9h-7v-3.3c-2.9,2.9-7,4.2-11,4.2h-1.3c-9.8,0-17.8-7.7-17.8-17.2v-14.3c0-9.6,8-17.2,17.8-17.2h1.1
		c3.9,0,8.1,1.7,11,4.4V70.4h7.2V135.9z M261,120.1c0,5.6,4.5,10.1,10.4,10.1h1c5.9,0,10.5-4.6,10.5-10.2v-15
		c0-5.6-4.6-10.1-10.5-10.1h-1c-5.9,0-10.4,4.5-10.4,10.1V120.1z"/>
	<path class="st0" d="M313.4,89.1V120c0,5.6,4.3,10.1,10.4,10.1c6.1,0,11.5-5.1,11.5-9.6V89.1h7.5v46.8h-7.3v-3.8
		c-2.2,2.2-6.6,4.8-12.1,4.8c-10.3,0-17.6-7.6-17.6-17.1V89.1H313.4z"/>
	<path class="st0" d="M395.4,135.9h-7v-3.3c-2.9,2.9-7,4.2-11,4.2h-1.3c-9.8,0-17.8-7.7-17.8-17.2v-14.3c0-9.6,8-17.2,17.8-17.2h1.1
		c3.9,0,8.1,1.7,11,4.4V70.4h7.2V135.9z M365.9,120.1c0,5.6,4.5,10.1,10.4,10.1h1c5.9,0,10.5-4.6,10.5-10.2v-15
		c0-5.6-4.6-10.1-10.5-10.1h-1c-5.9,0-10.4,4.5-10.4,10.1V120.1z"/>
	<path class="st0" d="M439.8,132.1c-1.7,2.2-6.7,4.8-10.7,4.8h-1.8c-8.2,0-16.1-6.1-16.1-14.6c0-8.1,6.9-14.5,15.5-15.1l12.8-0.8
		v-2.4c0-4.7-3.7-8.9-8.8-8.9h-0.9c-4,0-8.3,2.6-9,6.8h-7.4c0.8-7.9,8.3-13.7,16.7-13.7h0.9c10.2,0,16.1,6.8,16.1,15.2v32.6h-7.3
		V132.1z M429.2,130.1c5.8,0,10.4-5.1,10.4-8.9v-8.1l-12.3,0.8c-4.9,0.4-8.5,3.7-8.5,8.2c0,4.4,4.4,8,9,8H429.2z"/>
	<path class="st0" d="M490.7,102.5c0-3.9-3.5-7.6-7.5-7.6h-1.8c-3.7,0-7,2.4-7,5.7c0,9.5,23.9,5.8,23.9,22.8
		c0,7.5-7.4,13.5-15.5,13.5h-2.1c-9.5,0-15.8-7.2-15.8-14.6v-1.1h7.5v0.8c0,4.4,3.9,8.1,8.6,8.1h1.7c4.3,0,8-3,8-6.9
		c0-9.9-24.1-6.7-24.1-22c0-7.8,6.7-13,14.9-13h1.8c10.2,0,15.3,8.3,15.3,14.3H490.7z"/>
	<path class="st0" d="M34,147.6V143h472.1v4.7H34z"/>
</g>
<g>
	<path class="st0" d="M471.3,48.9h1.5l-1.1,7.9c1-1,2.7-1.9,4.3-1.9c3.3,0,5.2,2.2,4.8,4.9l-0.9,6.6c-0.4,2.7-3,4.9-6.2,4.9
		c-2.1,0-4-0.4-5.4-0.9L471.3,48.9z M479.2,60c0.3-2-1.3-3.7-3.5-3.7c-2.2,0-4.2,1.7-4.5,3.7l-1.3,9.2c1.3,0.6,2.5,0.9,3.9,0.9
		c2.2,0,4.3-1.8,4.6-3.8L479.2,60z"/>
	<path class="st0" d="M493.2,71c0,0-2,0.4-3.9,0.4c-3.3,0-5.3-2.2-4.9-4.9l0.9-6.6c0.4-2.7,2.9-4.9,6.3-4.9h0.4
		c2.4,0,4.5,2.1,4.2,4.4l-0.1,0.5c-0.3,2-1.8,3.1-4.1,4l-6,2.1l-0.1,0.5c-0.3,2,1.3,3.7,3.5,3.7c1.8,0,3.1-0.3,4-0.5L493.2,71z
		 M486.3,64.3l6.1-2.1c1.4-0.5,2.1-1.2,2.3-2.2l0.1-0.4c0.3-1.8-1.4-3.4-3.2-3.4h-0.1c-2.2,0-4.3,1.8-4.6,3.8L486.3,64.3z"/>
	<path class="st0" d="M499.7,55.2h2.4l0.6-4.4h1.5l-0.6,4.4h7.6l-0.2,1.4h-7.6L502,66.7c-0.2,1.4,0.8,3.3,2.9,3.3
		c1.8,0,3.4-1.6,3.6-2.9h1.4c-0.3,2.1-2.7,4.3-5.2,4.3c-3.1,0-4.6-2.2-4.3-4.7l1.4-10.1h-2.4L499.7,55.2z"/>
	<path class="st0" d="M524.3,68.1c-0.1,0.9,0.3,1.6,1.1,1.8l-0.2,1.4c-1.1,0-2.1-0.9-2.4-2.1c-1.5,1.7-3.2,2.2-4.4,2.2
		c-3.2,0-5.1-2.2-4.7-4.9l0.9-6.6c0.4-2.7,2.9-4.9,6.1-4.9c2.1,0,4,0.4,5.3,1L524.3,68.1z M515.2,66.3c-0.3,2,1.2,3.8,3.4,3.8
		c2.2,0,4.2-1.8,4.5-3.8l1.3-9.2c-1.3-0.5-2.4-0.8-3.9-0.8c-2.1,0-4.1,1.8-4.4,3.8L515.2,66.3z"/>
</g>
</svg>
