<?xml version="1.0" encoding="utf-8"?>
<!-- Generator: Adobe Illustrator 21.0.2, SVG Export Plug-In . SVG Version: 6.00 Build 0)  -->
<svg version="1.1" id="Capa_1" xmlns="http://www.w3.org/2000/svg" xmlns:xlink="http://www.w3.org/1999/xlink" x="0px" y="0px"
	 viewBox="0 0 800 600" style="enable-background:new 0 0 800 600;" xml:space="preserve">
<style type="text/css">
	.st0{fill:#FFFFFF;}
</style>
<g>
	<g>
		<path class="st0" d="M419.5,359.4h8.4c11.7,0,16.5-8,16.5-18.4c0-12.2-5.9-18.2-16.9-18.2h-7.9V359.4z M410.6,315.9h17.8
			c18.1,0,25.7,10,25.7,25.2c0,14.9-7.9,25.2-24.9,25.2h-18.6V315.9z"/>
	</g>
	<rect x="462.3" y="315.9" class="st0" width="8.9" height="50.4"/>
	<g>
		<path class="st0" d="M523.4,362.8c-5.1,3-12.2,4.1-18,4.1c-14.8,0-26-8.7-26-25.3c0-18.4,11.7-26.4,26.7-26.4
			c5.7,0,12.2,1.4,16.1,3.6l-1.6,7c-3.8-2-8.7-3.4-13.6-3.4c-10.2,0-18.2,5.6-18.2,18.9c0,12,7.6,18.2,17.6,18.2
			c2.6,0,6.1-0.5,8.7-1.7v-11.4h-5.8v-5.8h14.1V362.8z"/>
	</g>
	<rect x="532.7" y="315.9" class="st0" width="8.9" height="50.4"/>
	<polygon class="st0" points="565.5,322.8 549.2,322.8 549.2,315.9 590.8,315.9 590.8,322.8 574.5,322.8 574.5,366.3 565.5,366.3 	
		"/>
	<g>
		<path class="st0" d="M612.4,327.4c-2.1,5.3-4.4,11.8-6.7,17.9h13.8l-6.7-17.9H612.4z M621.8,351.9h-18.4c-1.7,4.8-4.2,12.2-5,14.5
			h-9.3c4-10.7,15.5-40.6,19.8-50.4h7.6c3.5,8.6,15.9,40,20,50.4h-9.3C625.9,362.9,623.9,357.6,621.8,351.9"/>
	</g>
	<polygon class="st0" points="643.4,315.9 652.4,315.9 652.4,359.4 672,359.4 672,366.3 643.4,366.3 	"/>
	<g>
		<path class="st0" d="M228.3,363.5C228.3,363.5,228.3,363.5,228.3,363.5l0-90.6l-40.5,40.5c-1.2,1.2-2.9,1.9-4.6,1.9
			c-1.7,0-3.4-0.7-4.6-1.9l-40.5-40.5v90.6c0,0,0,0,0,0c-5.8,6.6-13.1,2.5-13.1-3.2v-105c0,0,0,0,0,0c2.3-5.4,8.1-6,11.2-2.8l47,47
			l48.3-48.3c0,0,0,0,0,0c5.5-2.2,9.9,1.5,9.9,5.9v103.3C241.4,366.1,234.1,370.1,228.3,363.5"/>
		<path class="st0" d="M334.6,308.7l47-47c2.6-2.6,2.6-6.7,0-9.3c-2.6-2.6-6.7-2.6-9.3,0l-47,47l-47-47c-2.6-2.6-6.7-2.6-9.3,0
			c-2.6,2.6-2.6,6.7,0,9.3l47,47l-47,47c-2.6,2.6-2.6,6.7,0,9.3c1.3,1.3,3,1.9,4.6,1.9s3.4-0.6,4.6-1.9l47-47l47,47
			c1.3,1.3,3,1.9,4.6,1.9c1.7,0,3.4-0.6,4.6-1.9c2.6-2.6,2.6-6.7,0-9.3L334.6,308.7z"/>
		<path class="st0" d="M136.3,252.3c5.3,6.9-2.5,14.7-9.5,9.5C121.6,254.9,129.4,247.1,136.3,252.3"/>
		<path class="st0" d="M187.9,252.3c5.3,6.9-2.5,14.7-9.5,9.5C173.2,254.9,181,247.1,187.9,252.3"/>
		<path class="st0" d="M239.6,252.3c5.3,6.9-2.5,14.7-9.5,9.5C224.9,254.9,232.7,247.1,239.6,252.3"/>
		<path class="st0" d="M136.3,304c5.3,6.9-2.5,14.7-9.5,9.5C121.6,306.5,129.4,298.7,136.3,304"/>
		<path class="st0" d="M239.6,304c5.3,6.9-2.5,14.7-9.5,9.5C224.9,306.5,232.7,298.7,239.6,304"/>
		<path class="st0" d="M136.3,355.6c5.3,6.9-2.5,14.7-9.5,9.5C121.6,358.2,129.4,350.4,136.3,355.6"/>
		<path class="st0" d="M187.9,355.6c5.3,6.9-2.5,14.7-9.5,9.5C173.2,358.2,181,350.4,187.9,355.6"/>
		<path class="st0" d="M239.6,355.6c5.3,6.9-2.5,14.7-9.5,9.5C224.9,358.2,232.7,350.4,239.6,355.6"/>
		<path class="st0" d="M280.1,257.1c0,3.6-2.9,6.5-6.5,6.5c-3.6,0-6.5-2.9-6.5-6.5s2.9-6.5,6.5-6.5
			C277.3,250.6,280.1,253.5,280.1,257.1"/>
		<path class="st0" d="M331.8,257.1c0,3.6-2.9,6.5-6.5,6.5c-3.6,0-6.5-2.9-6.5-6.5s2.9-6.5,6.5-6.5
			C328.9,250.6,331.8,253.5,331.8,257.1"/>
		<path class="st0" d="M383.4,257.1c0,3.6-2.9,6.5-6.5,6.5s-6.5-2.9-6.5-6.5s2.9-6.5,6.5-6.5S383.4,253.5,383.4,257.1"/>
		<path class="st0" d="M280.1,308.7c0,3.6-2.9,6.5-6.5,6.5c-3.6,0-6.5-2.9-6.5-6.5c0-3.6,2.9-6.5,6.5-6.5
			C277.3,302.3,280.1,305.2,280.1,308.7"/>
		<path class="st0" d="M331.8,308.7c0,3.6-2.9,6.5-6.5,6.5c-3.6,0-6.5-2.9-6.5-6.5c0-3.6,2.9-6.5,6.5-6.5
			C328.9,302.3,331.8,305.2,331.8,308.7"/>
		<path class="st0" d="M187.9,304c5.3,6.9-2.5,14.7-9.5,9.5C173.2,306.5,181,298.7,187.9,304"/>
		<path class="st0" d="M383.4,308.7c0,3.6-2.9,6.5-6.5,6.5s-6.5-2.9-6.5-6.5c0-3.6,2.9-6.5,6.5-6.5S383.4,305.2,383.4,308.7"/>
		<path class="st0" d="M280.1,360.4c0,3.6-2.9,6.5-6.5,6.5c-3.6,0-6.5-2.9-6.5-6.5c0-3.6,2.9-6.5,6.5-6.5
			C277.3,353.9,280.1,356.8,280.1,360.4"/>
		<path class="st0" d="M331.8,360.4c0,3.6-2.9,6.5-6.5,6.5c-3.6,0-6.5-2.9-6.5-6.5c0-3.6,2.9-6.5,6.5-6.5
			C328.9,353.9,331.8,356.8,331.8,360.4"/>
		<path class="st0" d="M383.4,360.4c0,3.6-2.9,6.5-6.5,6.5s-6.5-2.9-6.5-6.5c0-3.6,2.9-6.5,6.5-6.5S383.4,356.8,383.4,360.4"/>
	</g>
	<path class="st0" d="M478.8,242.2l15.7-9.1l4,6.7l-17.4,5.8L478.8,242.2z M475.3,250.7h28.1v7.1h-19v15.1h14.5l0,6.4h-14.5V295
		h19.4v7.1h-28.5V250.7z"/>
	<g>
		<path class="st0" d="M526,275.8c-3.1-5.1-13.5-21.5-15.9-25.1h10.4c1.2,1.8,9.6,16,11.5,19h0.4c2.7-4.1,5.8-9.6,11.4-19h9.9
			c-6.8,11.2-12,19.5-15.7,24.9l17.7,26.6h-10.4l-13.2-20.3h-0.4c-2.7,4.2-7.5,11.6-12.7,20.2h-10.2
			C514.8,292.8,520.7,283.7,526,275.8"/>
	</g>
	<rect x="562.1" y="250.7" class="st0" width="9" height="51.3"/>
	<g>
		<path class="st0" d="M579.2,277c0-18.1,11.5-26.8,25.9-26.8c4.8,0,11.3,1.3,15.1,3.7l-1.6,7.1c-3.5-2-8.4-3.4-12.5-3.4
			c-10.1,0-17.3,6.4-17.3,19.3c0,12.7,8.2,18.3,17.9,18.3c4.4,0,9.1-1.1,13-3l1,7.1c-4.6,2.3-10,3.5-15.3,3.5
			C592.1,302.7,579.2,295.2,579.2,277"/>
		<path class="st0" d="M665.5,276.1c0-12.2-5.3-19.2-15.3-19.2c-10,0-15,7.5-15,19.3c0,11.8,5,19.4,15,19.4
			C660.1,295.7,665.5,288.7,665.5,276.1 M625.7,276.3c0-14.9,8-26.2,24.6-26.2c16.6,0,24.6,11.2,24.6,25.9
			c0,15.9-8.6,26.6-24.6,26.6C634.2,302.7,625.7,291.7,625.7,276.3"/>
	</g>
	<polygon class="st0" points="456.1,250.7 438.3,282.7 420.5,250.7 410.6,250.7 410.6,302.1 419.4,302.1 419.4,267 419.7,267 
		436.4,295.1 440.1,295.1 456.8,267 457.2,267 457.2,302.1 466,302.1 466,250.7 	"/>
</g>
</svg>
