<?xml version="1.0" encoding="utf-8"?>
<!-- Generator: Adobe Illustrator 21.0.2, SVG Export Plug-In . SVG Version: 6.00 Build 0)  -->
<svg version="1.1" id="Capa_1" xmlns="http://www.w3.org/2000/svg" xmlns:xlink="http://www.w3.org/1999/xlink" x="0px" y="0px"
	 viewBox="0 0 800 600" style="enable-background:new 0 0 800 600;" xml:space="preserve">
<style type="text/css">
	.st0{fill:#FFFFFF;}
</style>
<g>
	<g>
		<polygon class="st0" points="199,276.3 199,230.6 223.6,230.6 223.6,207.8 199,207.8 176.2,207.8 176.2,253.5 153.3,253.5 
			153.3,299.1 130.5,299.1 130.5,346.5 153.3,346.5 153.3,323.7 176.2,323.7 176.2,276.3 		"/>
		<rect x="223.6" y="230.6" class="st0" width="22.8" height="22.8"/>
		<rect x="246.4" y="253.5" class="st0" width="22.8" height="22.8"/>
		<rect x="199" y="276.3" class="st0" width="23.7" height="23.7"/>
		<rect x="222.7" y="300" class="st0" width="23.7" height="23.7"/>
		<rect x="200.3" y="347" class="st0" width="23.3" height="22.4"/>
		<rect x="176.2" y="323.7" class="st0" width="24.2" height="23.3"/>
		<polygon class="st0" points="292.1,253.5 292.1,276.3 269.3,276.3 269.3,323.7 246.4,323.7 246.4,369.4 223.6,369.4 223.6,392.2 
			246.4,392.2 269.3,392.2 269.3,346.5 292.1,346.5 292.1,299.1 314.9,299.1 314.9,253.5 		"/>
	</g>
	<g>
		<path class="st0" d="M343.8,293.3V263h2.1v30.3H343.8z"/>
		<path class="st0" d="M369.7,293.3v-14.6c0-2.3-0.5-3.9-1.4-4.9c-1-1-2.4-1.5-4.4-1.5c-2.7,0-4.7,0.7-5.9,2
			c-1.3,1.4-1.9,3.6-1.9,6.6v12.4H354v-22.5h1.7l0.4,3.1h0.1c1.5-2.4,4.1-3.5,7.8-3.5c5.1,0,7.7,2.7,7.7,8.2v14.7L369.7,293.3
			L369.7,293.3z"/>
		<path class="st0" d="M393,287.5c0,2-0.8,3.6-2.3,4.7s-3.7,1.6-6.5,1.6c-3,0-5.4-0.5-7.2-1.4v-2.2c2.3,1.1,4.7,1.7,7.2,1.7
			c2.2,0,3.9-0.4,5.1-1.1s1.7-1.7,1.7-3c0-1.1-0.5-2.1-1.4-2.9s-2.4-1.5-4.5-2.3c-2.3-0.8-3.8-1.5-4.7-2.1c-0.9-0.6-1.6-1.3-2.1-2
			s-0.7-1.6-0.7-2.7c0-1.7,0.7-3,2.1-4s3.4-1.5,5.9-1.5c2.4,0,4.7,0.5,6.9,1.4l-0.8,1.9c-2.2-0.9-4.3-1.4-6.2-1.4
			c-1.8,0-3.3,0.3-4.4,0.9s-1.6,1.5-1.6,2.5c0,1.2,0.4,2.1,1.3,2.8c0.8,0.7,2.5,1.5,4.9,2.4c2,0.7,3.5,1.4,4.4,2s1.6,1.3,2.1,2
			C392.8,285.6,393,286.5,393,287.5z"/>
		<path class="st0" d="M404.8,291.9c1.3,0,2.4-0.1,3.4-0.3v1.7c-1,0.3-2.1,0.5-3.4,0.5c-2,0-3.5-0.5-4.4-1.6s-1.4-2.7-1.4-5v-14.6
			h-3.3v-1.2l3.3-0.9l1-5.1h1.1v5.5h6.6v1.8H401V287c0,1.7,0.3,3,0.9,3.8C402.5,291.5,403.5,291.9,404.8,291.9z"/>
		<path class="st0" d="M412.8,264.5c0-1.3,0.4-2,1.3-2c0.4,0,0.8,0.2,1,0.5s0.4,0.8,0.4,1.5c0,0.6-0.1,1.1-0.4,1.5
			c-0.2,0.4-0.6,0.5-1,0.5C413.2,266.5,412.8,265.9,412.8,264.5z M415.1,293.3H413v-22.5h2.1V293.3z"/>
		<path class="st0" d="M428.6,291.9c1.3,0,2.4-0.1,3.4-0.3v1.7c-1,0.3-2.1,0.5-3.4,0.5c-2,0-3.5-0.5-4.4-1.6s-1.4-2.7-1.4-5v-14.6
			h-3.3v-1.2l3.3-0.9l1-5.1h1.1v5.5h6.6v1.8h-6.6V287c0,1.7,0.3,3,0.9,3.8C426.4,291.5,427.3,291.9,428.6,291.9z"/>
		<path class="st0" d="M438.7,270.8v14.6c0,2.3,0.5,3.9,1.4,4.9c1,1,2.4,1.5,4.4,1.5c2.7,0,4.7-0.7,5.9-2c1.3-1.4,1.9-3.6,1.9-6.6
			v-12.4h2v22.5h-1.7l-0.4-3.1h-0.1c-1.5,2.4-4.1,3.5-7.8,3.5c-5.1,0-7.7-2.7-7.7-8.2v-14.7L438.7,270.8L438.7,270.8z"/>
		<path class="st0" d="M467.9,291.9c1.3,0,2.4-0.1,3.4-0.3v1.7c-1,0.3-2.1,0.5-3.4,0.5c-2,0-3.5-0.5-4.4-1.6s-1.4-2.7-1.4-5v-14.6
			h-3.3v-1.2l3.3-0.9l1-5.1h1.1v5.5h6.6v1.8h-6.6V287c0,1.7,0.3,3,0.9,3.8C465.6,291.5,466.6,291.9,467.9,291.9z"/>
		<path class="st0" d="M494.8,282c0,3.7-0.9,6.5-2.7,8.6c-1.8,2.1-4.2,3.1-7.4,3.1c-2,0-3.7-0.5-5.2-1.4c-1.5-1-2.7-2.3-3.5-4.1
			c-0.8-1.8-1.2-3.8-1.2-6.2c0-3.7,0.9-6.5,2.7-8.6c1.8-2.1,4.2-3.1,7.3-3.1c3.1,0,5.5,1,7.3,3.1C493.9,275.6,494.8,278.4,494.8,282
			z M477,282c0,3.1,0.7,5.5,2,7.2c1.4,1.7,3.3,2.6,5.8,2.6s4.4-0.9,5.8-2.6s2-4.2,2-7.2c0-3.1-0.7-5.5-2.1-7.2s-3.3-2.6-5.8-2.6
			s-4.4,0.9-5.8,2.6C477.7,276.5,477,278.9,477,282z"/>
		<path class="st0" d="M534.7,293.3h-2.1l-18-26.9h-0.2c0.2,3.2,0.2,5.6,0.2,7.3v19.7h-2V263h2.1l17.9,26.9h0.1
			c-0.1-2.5-0.2-4.9-0.2-7.1V263h2.1v30.3H534.7z"/>
		<path class="st0" d="M556.4,293.3l-0.5-3.6h-0.2c-1.1,1.5-2.3,2.5-3.5,3.1s-2.6,0.9-4.2,0.9c-2.2,0-3.9-0.6-5.2-1.7
			c-1.2-1.1-1.8-2.7-1.8-4.7c0-2.2,0.9-3.9,2.7-5.1s4.5-1.9,8-1.9l4.3-0.1v-1.5c0-2.1-0.4-3.8-1.3-4.9c-0.9-1.1-2.3-1.6-4.2-1.6
			c-2.1,0-4.3,0.6-6.5,1.7l-0.8-1.8c2.5-1.2,4.9-1.7,7.3-1.7c2.5,0,4.3,0.6,5.5,1.9s1.8,3.3,1.8,6v15L556.4,293.3L556.4,293.3z
			 M548.1,291.9c2.4,0,4.3-0.7,5.7-2.1s2.1-3.3,2.1-5.7v-2.2L552,282c-3.2,0.2-5.4,0.6-6.8,1.5c-1.3,0.8-2,2.1-2,3.9
			c0,1.4,0.4,2.5,1.3,3.3C545.3,291.5,546.5,291.9,548.1,291.9z"/>
		<path class="st0" d="M574.2,293.8c-3.2,0-5.7-1-7.6-3c-1.8-2-2.7-4.9-2.7-8.5c0-3.7,0.9-6.6,2.8-8.7c1.9-2.1,4.5-3.1,7.8-3.1
			c1.9,0,3.8,0.3,5.6,1l-0.6,1.8c-1.9-0.7-3.6-1-5.1-1c-2.8,0-4.9,0.9-6.3,2.6c-1.4,1.7-2.1,4.2-2.1,7.4c0,3,0.7,5.4,2.1,7.1
			c1.4,1.7,3.4,2.6,6,2.6c2,0,3.9-0.4,5.7-1.1v1.9C578.5,293.4,576.6,293.8,574.2,293.8z"/>
		<path class="st0" d="M585.1,264.5c0-1.3,0.4-2,1.3-2c0.4,0,0.8,0.2,1,0.5s0.4,0.8,0.4,1.5c0,0.6-0.1,1.1-0.4,1.5
			c-0.2,0.4-0.6,0.5-1,0.5C585.6,266.5,585.1,265.9,585.1,264.5z M587.5,293.3h-2.1v-22.5h2.1V293.3z"/>
		<path class="st0" d="M613.7,282c0,3.7-0.9,6.5-2.7,8.6s-4.2,3.1-7.4,3.1c-2,0-3.7-0.5-5.2-1.4c-1.5-1-2.7-2.3-3.5-4.1
			c-0.8-1.8-1.2-3.8-1.2-6.2c0-3.7,0.9-6.5,2.7-8.6s4.2-3.1,7.3-3.1s5.5,1,7.3,3.1C612.8,275.6,613.7,278.4,613.7,282z M595.9,282
			c0,3.1,0.7,5.5,2,7.2c1.4,1.7,3.3,2.6,5.8,2.6s4.4-0.9,5.8-2.6c1.4-1.7,2-4.2,2-7.2c0-3.1-0.7-5.5-2.1-7.2
			c-1.4-1.7-3.3-2.6-5.8-2.6s-4.4,0.9-5.8,2.6C596.5,276.5,595.9,278.9,595.9,282z"/>
		<path class="st0" d="M635.6,293.3v-14.6c0-2.3-0.5-3.9-1.4-4.9c-1-1-2.4-1.5-4.4-1.5c-2.7,0-4.7,0.7-5.9,2
			c-1.3,1.4-1.9,3.6-1.9,6.6v12.4h-2.1v-22.5h1.7l0.4,3.1h0.1c1.5-2.4,4.1-3.5,7.8-3.5c5.1,0,7.7,2.7,7.7,8.2v14.7L635.6,293.3
			L635.6,293.3z"/>
		<path class="st0" d="M658.6,293.3l-0.5-3.6h-0.2c-1.1,1.5-2.3,2.5-3.5,3.1s-2.6,0.9-4.2,0.9c-2.2,0-3.9-0.6-5.2-1.7
			c-1.2-1.1-1.8-2.7-1.8-4.7c0-2.2,0.9-3.9,2.7-5.1s4.5-1.9,8-1.9l4.3-0.1v-1.5c0-2.1-0.4-3.8-1.3-4.9c-0.9-1.1-2.3-1.6-4.2-1.6
			c-2.1,0-4.3,0.6-6.5,1.7l-0.8-1.8c2.5-1.2,4.9-1.7,7.3-1.7c2.5,0,4.3,0.6,5.5,1.9s1.8,3.3,1.8,6v15L658.6,293.3L658.6,293.3z
			 M650.3,291.9c2.4,0,4.3-0.7,5.7-2.1s2.1-3.3,2.1-5.7v-2.2l-3.9,0.2c-3.2,0.2-5.4,0.6-6.8,1.5s-2,2.1-2,3.9c0,1.4,0.4,2.5,1.3,3.3
			C647.5,291.5,648.8,291.9,650.3,291.9z"/>
		<path class="st0" d="M669.5,293.3h-2.1V261h2.1V293.3z"/>
		<path class="st0" d="M351.6,321.3c1.6,0,3,0.3,4.2,0.9s2.3,1.6,3.2,3h0.1c-0.1-1.7-0.1-3.4-0.1-5.1V312h2v32.3h-1.3l-0.5-3.4H359
			c-1.7,2.6-4.2,3.9-7.4,3.9c-3.1,0-5.5-1-7.1-2.9s-2.5-4.8-2.5-8.5c0-3.9,0.8-6.9,2.4-8.9C346.1,322.4,348.4,321.3,351.6,321.3z
			 M351.6,323.2c-2.5,0-4.3,0.9-5.5,2.6s-1.9,4.2-1.9,7.5c0,6.4,2.5,9.6,7.4,9.6c2.5,0,4.4-0.7,5.6-2.2s1.8-3.9,1.8-7.3V333
			c0-3.5-0.6-6-1.8-7.5C356.1,324,354.2,323.2,351.6,323.2z"/>
		<path class="st0" d="M377.7,344.7c-3.3,0-5.8-1-7.7-3c-1.8-2-2.7-4.8-2.7-8.5c0-3.6,0.9-6.5,2.7-8.6c1.8-2.2,4.2-3.2,7.2-3.2
			c2.7,0,4.7,0.9,6.3,2.8c1.5,1.9,2.3,4.4,2.3,7.5v1.7h-16.2c0,3.1,0.7,5.5,2.2,7.1c1.4,1.6,3.4,2.4,6.1,2.4c1.3,0,2.4-0.1,3.4-0.3
			c1-0.2,2.2-0.6,3.7-1.2v1.9c-1.3,0.6-2.4,0.9-3.5,1.1C380.2,344.6,379,344.7,377.7,344.7z M377.1,323.2c-2.2,0-3.9,0.7-5.2,2.1
			c-1.3,1.4-2.1,3.5-2.3,6.2h13.9c0-2.6-0.6-4.7-1.7-6.1C380.7,323.9,379.1,323.2,377.1,323.2z"/>
		<path class="st0" d="M420.2,336.5c0,2.5-0.9,4.5-2.8,6s-4.3,2.2-7.4,2.2c-3.7,0-6.5-0.4-8.5-1.2v-2.1c2.2,0.9,5,1.4,8.4,1.4
			c2.5,0,4.5-0.6,5.9-1.7c1.5-1.1,2.2-2.6,2.2-4.5c0-1.1-0.2-2.1-0.7-2.9s-1.3-1.4-2.4-2.1c-1.1-0.6-2.7-1.3-4.8-2
			c-3.1-1.1-5.2-2.2-6.4-3.5c-1.2-1.2-1.8-2.9-1.8-4.9c0-2.3,0.9-4.1,2.7-5.5c1.8-1.4,4.1-2.1,6.9-2.1s5.5,0.5,8,1.6l-0.8,1.8
			c-2.5-1.1-4.9-1.6-7.2-1.6c-2.2,0-4,0.5-5.4,1.6c-1.3,1-2,2.4-2,4.2c0,1.1,0.2,2,0.6,2.8c0.4,0.7,1.1,1.4,2,1.9
			c0.9,0.6,2.5,1.3,4.8,2.1c2.4,0.8,4.1,1.6,5.3,2.4c1.2,0.8,2.1,1.6,2.6,2.6S420.2,335.1,420.2,336.5z"/>
		<path class="st0" d="M439.8,344.3l-0.5-3.6h-0.2c-1.1,1.5-2.3,2.5-3.5,3.1s-2.6,0.9-4.2,0.9c-2.2,0-3.9-0.6-5.2-1.7
			c-1.2-1.1-1.8-2.7-1.8-4.7c0-2.2,0.9-3.9,2.7-5.1s4.5-1.9,8-1.9l4.3-0.1v-1.5c0-2.1-0.4-3.8-1.3-4.9s-2.3-1.6-4.2-1.6
			c-2.1,0-4.3,0.6-6.5,1.7l-0.8-1.8c2.5-1.2,4.9-1.7,7.3-1.7c2.5,0,4.3,0.6,5.5,1.9s1.8,3.3,1.8,6v15L439.8,344.3L439.8,344.3z
			 M431.5,342.9c2.4,0,4.3-0.7,5.7-2.1c1.4-1.4,2.1-3.3,2.1-5.7v-2.2l-3.9,0.2c-3.2,0.2-5.4,0.6-6.8,1.5c-1.3,0.8-2,2.1-2,3.9
			c0,1.4,0.4,2.5,1.3,3.3C428.7,342.5,429.9,342.9,431.5,342.9z"/>
		<path class="st0" d="M450.6,344.3h-2.1V312h2.1V344.3z"/>
		<path class="st0" d="M460,321.8v14.6c0,2.3,0.5,3.9,1.4,4.9c1,1,2.4,1.5,4.4,1.5c2.7,0,4.7-0.7,5.9-2c1.3-1.4,1.9-3.6,1.9-6.6
			v-12.4h2v22.5h-1.7l-0.4-3.1h-0.1c-1.5,2.4-4.1,3.5-7.8,3.5c-5.1,0-7.7-2.7-7.7-8.2v-14.7L460,321.8L460,321.8z"/>
		<path class="st0" d="M491.5,321.3c1.6,0,3,0.3,4.2,0.9s2.3,1.6,3.2,3h0.1c-0.1-1.7-0.1-3.4-0.1-5.1V312h2v32.3h-1.3l-0.5-3.4h-0.2
			c-1.7,2.6-4.2,3.9-7.4,3.9c-3.1,0-5.5-1-7.1-2.9s-2.5-4.8-2.5-8.5c0-3.9,0.8-6.9,2.4-8.9C486,322.4,488.4,321.3,491.5,321.3z
			 M491.5,323.2c-2.5,0-4.3,0.9-5.5,2.6s-1.9,4.2-1.9,7.5c0,6.4,2.5,9.6,7.4,9.6c2.5,0,4.4-0.7,5.6-2.2s1.8-3.9,1.8-7.3V333
			c0-3.5-0.6-6-1.8-7.5C496,324,494.1,323.2,491.5,323.2z"/>
		<path class="st0" d="M538.3,322.7c0,2.9-1,5.2-3,6.7c-2,1.6-4.8,2.3-8.5,2.3h-4.7v12.5H520V314h7.4
			C534.7,314,538.3,316.9,538.3,322.7z M522.2,330h4.2c3.4,0,5.9-0.6,7.4-1.7s2.3-3,2.3-5.5c0-2.3-0.7-4.1-2.2-5.2
			c-1.4-1.1-3.7-1.7-6.7-1.7h-5V330z"/>
		<path class="st0" d="M546.2,321.8v14.6c0,2.3,0.5,3.9,1.4,4.9c1,1,2.4,1.5,4.4,1.5c2.7,0,4.7-0.7,5.9-2c1.3-1.4,1.9-3.6,1.9-6.6
			v-12.4h2v22.5h-1.7l-0.4-3.1h-0.1c-1.5,2.4-4.1,3.5-7.8,3.5c-5.1,0-7.7-2.7-7.7-8.2v-14.7L546.2,321.8L546.2,321.8z M550.9,318.2
			c1-1.1,2-2.3,3-3.6c1-1.3,1.7-2.3,2-2.9h2.9v0.4c-0.5,0.7-1.3,1.7-2.5,2.9c-1.2,1.2-2.5,2.4-4,3.6h-1.5L550.9,318.2L550.9,318.2z"
			/>
		<path class="st0" d="M579,321.3c3.2,0,5.5,1,7.1,3s2.4,4.9,2.4,8.7c0,3.7-0.8,6.6-2.5,8.7c-1.7,2-4,3-7.1,3c-1.6,0-3-0.3-4.3-1
			s-2.3-1.6-3-2.8h-0.2l-0.6,3.4h-1.3V312h2.1v8.1c0,1.2,0,2.3-0.1,3.4l-0.1,1.8h0.1c0.9-1.4,1.9-2.4,3.1-3
			C575.8,321.6,577.3,321.3,579,321.3z M578.9,323.2c-2.7,0-4.6,0.8-5.7,2.3c-1.1,1.5-1.7,4-1.7,7.5v0.4c0,3.4,0.6,5.8,1.8,7.3
			s3.1,2.2,5.6,2.2s4.3-0.9,5.6-2.6c1.2-1.7,1.9-4.2,1.9-7.4C586.3,326.5,583.8,323.2,578.9,323.2z"/>
		<path class="st0" d="M596.8,344.3h-2.1V312h2.1V344.3z"/>
		<path class="st0" d="M604,315.5c0-1.3,0.4-2,1.3-2c0.4,0,0.8,0.2,1,0.5s0.4,0.8,0.4,1.5c0,0.6-0.1,1.1-0.4,1.5
			c-0.2,0.4-0.6,0.5-1,0.5C604.5,317.5,604,316.8,604,315.5z M606.4,344.3h-2.1v-22.5h2.1V344.3z"/>
		<path class="st0" d="M622.9,344.7c-3.2,0-5.7-1-7.6-3c-1.8-2-2.7-4.9-2.7-8.5c0-3.7,0.9-6.6,2.8-8.7c1.9-2.1,4.5-3.1,7.8-3.1
			c1.9,0,3.8,0.3,5.6,1l-0.6,1.8c-1.9-0.7-3.6-1-5.1-1c-2.8,0-4.9,0.9-6.3,2.6c-1.4,1.7-2.1,4.2-2.1,7.4c0,3,0.7,5.4,2.1,7.1
			c1.4,1.7,3.4,2.6,6,2.6c2,0,3.9-0.4,5.7-1.1v1.9C627.1,344.4,625.3,344.7,622.9,344.7z"/>
		<path class="st0" d="M647.8,344.3l-0.5-3.6h-0.2c-1.1,1.5-2.3,2.5-3.5,3.1s-2.6,0.9-4.2,0.9c-2.2,0-3.9-0.6-5.2-1.7
			c-1.2-1.1-1.8-2.7-1.8-4.7c0-2.2,0.9-3.9,2.7-5.1s4.5-1.9,8-1.9l4.3-0.1v-1.5c0-2.1-0.4-3.8-1.3-4.9c-0.9-1.1-2.3-1.6-4.2-1.6
			c-2.1,0-4.3,0.6-6.5,1.7l-0.8-1.8c2.5-1.2,4.9-1.7,7.3-1.7c2.5,0,4.3,0.6,5.5,1.9s1.8,3.3,1.8,6v15L647.8,344.3L647.8,344.3z
			 M639.5,342.9c2.4,0,4.3-0.7,5.7-2.1s2.1-3.3,2.1-5.7v-2.2l-3.9,0.2c-3.2,0.2-5.4,0.6-6.8,1.5c-1.3,0.8-2,2.1-2,3.9
			c0,1.4,0.4,2.5,1.3,3.3C636.7,342.5,637.9,342.9,639.5,342.9z"/>
	</g>
</g>
</svg>
